<?xml version="1.0" encoding="UTF-8" standalone="no"?>
<!-- Created with Inkscape (http://www.inkscape.org/) -->

<svg
   xmlns:dc="http://purl.org/dc/elements/1.1/"
   xmlns:cc="http://creativecommons.org/ns#"
   xmlns:rdf="http://www.w3.org/1999/02/22-rdf-syntax-ns#"
   xmlns:svg="http://www.w3.org/2000/svg"
   xmlns="http://www.w3.org/2000/svg"
   xmlns:sodipodi="http://sodipodi.sourceforge.net/DTD/sodipodi-0.dtd"
   xmlns:inkscape="http://www.inkscape.org/namespaces/inkscape"
   width="195mm"
   height="195mm"
   viewBox="0 0 690.94488 690.94488"
   id="svg3344"
   version="1.1"
   inkscape:version="0.91 r13725"
   sodipodi:docname="drawing.svg">
  <defs
     id="defs3346" />
  <sodipodi:namedview
     id="base"
     pagecolor="#ffffff"
     bordercolor="#666666"
     borderopacity="1.0"
     inkscape:pageopacity="0.0"
     inkscape:pageshadow="2"
     inkscape:zoom="0.35"
     inkscape:cx="366.55657"
     inkscape:cy="180.6314"
     inkscape:document-units="px"
     inkscape:current-layer="layer1"
     showgrid="false"
     fit-margin-top="0"
     fit-margin-left="0"
     fit-margin-right="0"
     fit-margin-bottom="0"
     inkscape:window-width="1366"
     inkscape:window-height="716"
     inkscape:window-x="-8"
     inkscape:window-y="-8"
     inkscape:window-maximized="1" />
  <metadata
     id="metadata3349">
    <rdf:RDF>
      <cc:Work
         rdf:about="">
        <dc:format>image/svg+xml</dc:format>
        <dc:type
           rdf:resource="http://purl.org/dc/dcmitype/StillImage" />
        <dc:title></dc:title>
      </cc:Work>
    </rdf:RDF>
  </metadata>
  <g
     inkscape:label="Layer 1"
     inkscape:groupmode="layer"
     id="layer1"
     transform="translate(-8.443428,-22.048733)">
    <path
       style="fill:#000000"
       d="m 440.32354,43.668473 c 9.727,3.399535 20.91883,8.745581 26.7179,12.762329 31.03437,21.496183 53.725,49.209978 66.85487,81.654818 20.12405,49.72803 13.94568,104.33483 -16.89797,149.35058 -2.73323,3.9891 -6.36076,9.04955 -8.06118,11.24543 -7.87403,10.16838 -7.9651,16.46571 -0.28326,19.58838 4.93124,2.00454 13.13798,2.46824 32.54264,1.83873 9.95969,-0.32311 21.2432,-3.2e-4 21.60014,0.61791 0.0939,0.16256 -1.68551,2.38262 -3.95413,4.93348 -8.11638,9.1261 -11.06411,15.15417 -10.03659,20.52471 0.92213,4.81974 3.9658,7.10636 17.95961,13.49258 10.52031,4.80105 17.87361,8.81154 17.56714,9.58111 -0.40407,1.01469 -9.13943,2.5918 -18.36057,3.31487 -11.34097,0.88931 -15.49808,1.65434 -19.34434,3.5599 -3.58705,1.77715 -5.91765,4.28796 -7.21021,7.76771 -2.27206,6.11671 0.88188,9.65987 14.71936,16.53591 9.82992,4.88462 12.48692,6.48841 16.19351,9.77456 4.12974,3.66132 4.10795,4.21447 -0.17238,4.37623 -1.9996,0.0756 -7.6611,-0.12683 -12.58113,-0.44978 -19.26073,-1.26426 -26.66666,0.19233 -32.09029,6.31153 -4.44237,5.01209 -4.92557,10.39748 -1.61219,17.96827 0.77586,1.77277 3.60715,7.26872 6.29176,12.21324 3.1463,5.79484 5.06408,10.04175 5.3959,11.9492 0.28313,1.62754 0.415,3.01678 0.29304,3.08719 -0.12196,0.0704 -2.19753,-1.46187 -4.61239,-3.40507 -13.60521,-10.94794 -25.55737,-17.00854 -37.62146,-19.07675 -12.0389,-2.06391 -24.91512,0.18764 -37.03246,6.47553 l -3.76418,1.9533 -0.58069,-1.98513 c -0.31939,-1.09183 -0.58652,-4.95918 -0.59364,-8.59412 -0.0396,-20.25269 -0.54485,-24.34349 -3.68536,-29.84117 -3.27112,-5.72633 -8.80582,-8.33123 -16.66881,-7.84516 -5.93591,0.36695 -14.95874,2.45197 -17.26186,3.98891 -2.07868,1.38717 -2.30489,1.74541 -2.78815,4.41539 -0.71758,3.96452 1.11465,9.00404 7.304,20.08961 5.85212,10.48156 8.49859,16.27603 11.38946,24.93735 3.91096,11.7176 5.54277,23.85042 4.92251,36.59988 -0.25009,5.14078 -0.69671,7.43232 -3.47829,17.84655 -3.44877,12.91221 -4.52367,15.5487 -10.83885,26.58503 -10.09059,17.63418 -28.64504,37.16782 -49.41007,52.01762 -2.6588,1.9014 -4.95993,3.99511 -5.40384,4.91673 -2.33991,4.85804 0.90402,10.89247 12.64031,23.51377 6.39431,6.87649 8.32957,9.92284 7.72857,12.16578 -0.5427,2.02539 -1.14949,2.38475 -8.71764,5.16285 -16.29891,5.98295 -21.87263,11.87461 -22.80462,24.10543 -0.30729,4.03267 -0.1677,9.84911 0.33074,13.78192 0.18861,1.48812 -4.27084,1.5396 -13.10447,0.15128 -8.70163,-1.36757 -10.973,-1.45845 -15.20128,-0.60826 -7.34093,1.47606 -9.25088,3.88444 -13.29098,16.75947 -1.75539,5.59408 -3.23332,9.47259 -3.91135,10.26449 -2.08665,2.43709 -5.33898,0.30493 -11.372,-7.45528 -5.45531,-7.0171 -7.61941,-8.87213 -11.59222,-9.93664 -4.55281,-1.21992 -9.71105,0.004 -22.12716,5.24914 -11.56518,4.8859 -14.62324,5.67738 -18.19289,4.70863 -3.79792,-1.03069 -3.84002,-1.17996 -1.64643,-5.83839 3.41467,-7.25159 2.97016,-9.73151 -1.98215,-11.05848 -3.32881,-0.89195 -7.31019,-0.86389 -17.78668,0.12538 -3.77214,0.3562 -7.8916,0.43953 -9.15436,0.18518 -1.99577,-0.40199 -2.27711,-0.61811 -2.15202,-1.65315 0.0791,-0.65489 1.41059,-2.61093 2.95875,-4.34675 3.67817,-4.12402 5.20962,-6.78289 5.01382,-8.70488 -0.26348,-2.58643 -1.90318,-3.79772 -8.15252,-6.0225 -10.56715,-3.76192 -18.18848,-10.40239 -23.81194,-20.74734 -6.08188,-11.18827 -8.15461,-20.80722 -7.91818,-36.74612 0.43429,-29.27771 -6.01176,-51.80651 -22.98043,-80.31607 -7.11961,-11.96185 -13.39763,-21.05546 -27.30171,-39.54604 -2.7393,-3.64291 -4.49668,-8.12254 -4.50082,-11.47275 -0.006,-4.47959 4.07937,-8.90785 10.66227,-11.55852 6.55204,-2.63825 14.26382,-2.48374 21.51159,0.43099 6.89066,2.77111 10.57122,5.52783 16.85285,12.62266 10.59582,11.96755 15.51678,14.77405 44.51986,25.39042 26.29599,9.62546 36.26394,14.38665 43.58105,20.81649 5.63024,4.94752 8.14772,9.62374 9.90323,18.3953 1.04757,5.23428 1.70289,13.91968 1.19366,15.82018 -0.36038,1.34493 -0.17012,2.81682 0.38327,2.9651 1.17352,0.31445 13.90014,-12.32485 18.91939,-18.78958 3.27542,-4.21871 4.22429,-8.02733 3.29817,-13.23838 -1.61634,-9.0947 -14.83302,-26.71583 -33.55478,-44.73688 -16.9052,-16.27246 -26.01726,-26.03584 -33.37967,-35.7656 -12.72696,-16.81925 -20.06807,-31.94342 -23.60308,-48.62712 -6.97867,-32.9363 2.60856,-65.18146 25.49387,-85.74461 11.56244,-10.3892 25.96179,-18.05616 45.10093,-24.01408 9.13299,-2.84304 28.12991,-6.66564 39.69747,-7.988 5.16584,-0.59053 13.08994,-1.49355 17.6091,-2.0067 24.35726,-2.76578 48.79801,-10.44519 66.89664,-21.01928 23.17302,-13.53879 38.15846,-31.95687 44.22917,-54.36052 3.97325,-14.66314 4.13415,-28.12527 0.53754,-44.97888 -2.43693,-11.41928 -7.85009,-26.1934 -12.41673,-33.88874 -4.81516,-8.11417 -14.95093,-18.41908 -23.1351,-23.521101 -10.9635,-6.834666 -25.32248,-10.623303 -37.22757,-9.822594 -25.38219,1.707139 -46.18782,19.503045 -53.02717,45.356335 -2.13466,8.06923 -2.28661,13.12166 -0.6438,21.40866 2.04576,10.31977 8.79279,19.84636 16.97329,23.96571 4.44315,2.23739 12.29661,3.71866 17.07916,3.22134 8.41404,-0.87492 16.16684,-4.31402 24.71621,-10.96397 12.26174,-9.5375 18.22134,-11.75574 19.68083,-7.32541 0.408,1.23843 0.24227,2.68077 -0.68191,5.93454 -5.09365,17.93336 -20.91029,29.92359 -43.75111,33.16676 -20.99213,2.98066 -43.71159,-3.5371 -58.23347,-16.70603 -13.45822,-12.20437 -19.67877,-28.67838 -18.72761,-49.59672 0.3,-6.59761 3.6199,-20.15177 6.66809,-27.22382 4.48752,-10.41142 10.14865,-19.432022 17.95498,-28.609895 8.80497,-10.351971 17.06581,-17.375595 28.30881,-24.069049 12.5508,-7.472017 23.11467,-11.465788 37.52844,-14.187957 23.46019,-4.430663 47.73128,-2.277154 72.70424,6.450894 z"
       id="path3376"
       inkscape:connector-curvature="0" />
  </g>
</svg>
